<mxfile host="app.diagrams.net" agent="Mozilla/5.0 (Windows NT 10.0; Win64; x64) AppleWebKit/537.36 (KHTML, like Gecko) Chrome/137.0.0.0 Safari/537.36" version="27.1.4">
  <diagram name="第 1 页" id="C3XO-QxFeKo6YsYlZuPU">
    <mxGraphModel dx="1042" dy="535" grid="1" gridSize="10" guides="1" tooltips="1" connect="1" arrows="1" fold="1" page="1" pageScale="1" pageWidth="827" pageHeight="1169" math="0" shadow="0">
      <root>
        <mxCell id="0" />
        <mxCell id="1" parent="0" />
        <mxCell id="s-qvJ4FQePMg8JL_yR_o-13" value="重点举措" style="swimlane;" vertex="1" parent="1">
          <mxGeometry x="70" y="200" width="200" height="200" as="geometry" />
        </mxCell>
        <mxCell id="s-qvJ4FQePMg8JL_yR_o-23" value="" style="group" vertex="1" connectable="0" parent="1">
          <mxGeometry x="120" y="80" width="700" height="60" as="geometry" />
        </mxCell>
        <mxCell id="s-qvJ4FQePMg8JL_yR_o-20" style="edgeStyle=orthogonalEdgeStyle;rounded=0;orthogonalLoop=1;jettySize=auto;html=1;exitX=1;exitY=0.5;exitDx=0;exitDy=0;" edge="1" parent="s-qvJ4FQePMg8JL_yR_o-23" source="s-qvJ4FQePMg8JL_yR_o-15" target="s-qvJ4FQePMg8JL_yR_o-16">
          <mxGeometry relative="1" as="geometry" />
        </mxCell>
        <mxCell id="s-qvJ4FQePMg8JL_yR_o-15" value="改变生活习惯" style="rounded=0;whiteSpace=wrap;html=1;" vertex="1" parent="s-qvJ4FQePMg8JL_yR_o-23">
          <mxGeometry x="-10" width="120" height="60" as="geometry" />
        </mxCell>
        <mxCell id="s-qvJ4FQePMg8JL_yR_o-21" style="edgeStyle=orthogonalEdgeStyle;rounded=0;orthogonalLoop=1;jettySize=auto;html=1;exitX=1;exitY=0.5;exitDx=0;exitDy=0;" edge="1" parent="s-qvJ4FQePMg8JL_yR_o-23" source="s-qvJ4FQePMg8JL_yR_o-16" target="s-qvJ4FQePMg8JL_yR_o-17">
          <mxGeometry relative="1" as="geometry" />
        </mxCell>
        <mxCell id="s-qvJ4FQePMg8JL_yR_o-16" value="学习生活技能" style="rounded=0;whiteSpace=wrap;html=1;" vertex="1" parent="s-qvJ4FQePMg8JL_yR_o-23">
          <mxGeometry x="210" width="120" height="60" as="geometry" />
        </mxCell>
        <mxCell id="s-qvJ4FQePMg8JL_yR_o-17" value="学习专业技能" style="rounded=0;whiteSpace=wrap;html=1;" vertex="1" parent="s-qvJ4FQePMg8JL_yR_o-23">
          <mxGeometry x="420" width="120" height="60" as="geometry" />
        </mxCell>
        <mxCell id="s-qvJ4FQePMg8JL_yR_o-24" value="生活技能学习" style="swimlane;" vertex="1" parent="1">
          <mxGeometry x="290" y="200" width="200" height="200" as="geometry" />
        </mxCell>
        <mxCell id="s-qvJ4FQePMg8JL_yR_o-25" value="专业技能学习" style="swimlane;" vertex="1" parent="1">
          <mxGeometry x="510" y="200" width="200" height="200" as="geometry" />
        </mxCell>
        <mxCell id="s-qvJ4FQePMg8JL_yR_o-26" value="实习和实践" style="swimlane;" vertex="1" parent="1">
          <mxGeometry x="730" y="200" width="200" height="200" as="geometry" />
        </mxCell>
        <mxCell id="s-qvJ4FQePMg8JL_yR_o-18" value="实践" style="rounded=0;whiteSpace=wrap;html=1;" vertex="1" parent="1">
          <mxGeometry x="767" y="80" width="120" height="60" as="geometry" />
        </mxCell>
        <mxCell id="s-qvJ4FQePMg8JL_yR_o-22" style="edgeStyle=orthogonalEdgeStyle;rounded=0;orthogonalLoop=1;jettySize=auto;html=1;exitX=1;exitY=0.5;exitDx=0;exitDy=0;entryX=0;entryY=0.5;entryDx=0;entryDy=0;" edge="1" parent="1" source="s-qvJ4FQePMg8JL_yR_o-17" target="s-qvJ4FQePMg8JL_yR_o-18">
          <mxGeometry relative="1" as="geometry" />
        </mxCell>
      </root>
    </mxGraphModel>
  </diagram>
</mxfile>
